<?xml version="1.0" standalone="no"?>
<!DOCTYPE svg PUBLIC "-//W3C//DTD SVG 20010904//EN"
 "http://www.w3.org/TR/2001/REC-SVG-20010904/DTD/svg10.dtd">
<svg version="1.0" xmlns="http://www.w3.org/2000/svg"
 width="16.000000pt" height="16.000000pt" viewBox="0 0 16.000000 16.000000"
 preserveAspectRatio="xMidYMid meet">
<metadata>
Created by potrace 1.11, written by Peter Selinger 2001-2013
</metadata>
<g transform="translate(0.000000,16.000000) scale(0.006154,-0.006154)"
fill="#000000" stroke="none">
<path d="M0 1300 l0 -1300 1300 0 1300 0 0 1300 0 1300 -1300 0 -1300 0 0
-1300z m1376 1035 c9 -13 29 -55 44 -92 15 -38 53 -126 83 -198 30 -71 91
-215 135 -320 81 -191 127 -300 396 -935 80 -189 146 -352 146 -362 0 -9 -10
-24 -22 -32 -19 -13 -60 -16 -248 -16 -260 0 -255 -1 -290 87 -41 107 -29 103
-341 103 -158 0 -278 -4 -289 -10 -10 -5 -30 -41 -45 -80 -15 -39 -36 -77 -48
-85 -18 -12 -63 -15 -250 -15 -138 0 -236 4 -248 10 -31 17 -23 52 47 218 112
266 234 554 259 612 13 30 62 147 110 260 47 113 103 246 125 295 21 50 68
162 105 250 109 259 127 299 143 318 12 13 31 17 93 17 73 0 80 -2 95 -25z"/>
<path d="M1202 1131 c-35 -88 -61 -165 -57 -171 8 -13 261 -14 270 -1 9 15
-118 325 -135 329 -11 2 -32 -41 -78 -157z"/>
</g>
</svg>
